<?xml version="1.0" standalone="no"?>
<!DOCTYPE svg PUBLIC "-//W3C//DTD SVG 20010904//EN"
 "http://www.w3.org/TR/2001/REC-SVG-20010904/DTD/svg10.dtd">
<svg version="1.0" xmlns="http://www.w3.org/2000/svg"
 width="360.000000pt" height="360.000000pt" viewBox="0 0 360.000000 360.000000"
 preserveAspectRatio="xMidYMid meet">
<metadata>
Created by potrace 1.16, written by Peter Selinger 2001-2019
</metadata>
<g transform="translate(0.000000,360.000000) scale(0.100000,-0.100000)"
fill="#000000" stroke="none">
<path d="M2386 2739 c-12 -59 -8 -66 32 -74 20 -3 61 -17 90 -31 l54 -24 39
32 c21 17 39 33 39 34 0 10 -100 59 -151 75 -84 26 -95 25 -103 -12z"/>
<path d="M1164 2735 c-182 -39 -313 -182 -345 -375 -21 -127 37 -288 137 -380
100 -90 196 -125 334 -118 73 3 98 9 161 40 337 159 345 631 15 793 -110 54
-189 65 -302 40z"/>
<path d="M2847 2573 l-98 -86 -32 31 c-18 18 -36 32 -39 32 -9 0 -38 -30 -38
-39 0 -19 83 -111 100 -111 22 0 260 205 260 224 0 17 -21 36 -39 36 -9 -1
-60 -40 -114 -87z"/>
<path d="M2675 2636 c-43 -18 -93 -79 -101 -122 -21 -115 94 -224 205 -194 60
16 121 76 121 120 0 23 -36 9 -47 -19 -14 -37 -53 -62 -106 -68 -121 -12 -184
140 -93 224 29 27 44 33 78 33 24 0 50 -4 58 -10 14 -9 40 4 40 21 0 10 -66
29 -100 29 -14 -1 -39 -7 -55 -14z"/>
<path d="M2320 2462 c0 -134 -2 -151 -19 -166 -10 -10 -25 -16 -33 -15 -7 1
-48 1 -90 0 -76 -1 -78 -2 -78 -26 0 -25 0 -25 93 -25 81 0 96 -3 112 -20 10
-11 30 -20 45 -20 53 0 82 69 46 109 -13 14 -16 43 -16 164 l0 147 -30 0 -30
0 0 -148z"/>
<path d="M2804 2282 c-40 -15 -42 -18 -48 -66 -4 -28 -12 -66 -17 -84 -10 -32
-12 -32 -34 -18 l-22 15 -5 -102 c-3 -56 -4 -103 -3 -105 1 -2 44 22 95 51 80
47 90 56 70 62 -17 5 -20 12 -16 28 28 97 36 138 36 184 0 29 -3 52 -7 52 -5
-1 -27 -8 -49 -17z"/>
<path d="M848 1835 c-116 -32 -224 -114 -287 -219 -56 -93 -71 -167 -71 -349
l0 -157 34 -68 c44 -87 112 -177 184 -243 l57 -52 5 169 5 169 28 -175 c16
-96 31 -185 34 -196 6 -28 128 -86 237 -114 95 -24 267 -27 367 -6 74 16 209
69 239 94 15 14 26 55 51 202 17 102 33 187 35 189 2 2 4 -71 4 -163 l0 -167
41 33 c59 47 138 146 190 235 l44 78 3 150 c3 111 -1 169 -12 218 -46 198
-194 344 -384 379 -60 11 -61 11 -130 -25 -170 -90 -377 -86 -538 8 -47 28
-67 29 -136 10z"/>
</g>
</svg>
