<svg width="24" height="24" viewBox="0 0 24 24" fill="none" xmlns="http://www.w3.org/2000/svg">
<g clip-path="url(#clip0_301_789)">
<path d="M19.1086 23.7905C18.7087 24.0501 18.3088 23.9984 17.8583 23.9984L0 23.9946L0.0298612 23.6066C0.693669 23.8455 1.42305 23.4216 1.64432 22.7621C1.72483 22.5216 1.70991 22.2212 1.71044 21.9688V2.78324C1.70162 2.5692 1.70803 2.3548 1.72963 2.14171C1.89332 1.0257 2.82532 0.122982 3.92634 0.0146997C4.14388 -0.00706551 4.37153 0.00436058 4.59013 0.00381645H21.4247C21.621 0.00381645 21.8513 -0.0184916 22.0411 0.0391863C23.3479 0.440755 23.9936 1.29395 23.9957 2.64775V4.55874C23.9957 4.73177 24.0085 4.92494 23.9808 5.0958L23.9765 5.12137C23.9147 5.47832 23.4705 5.43425 23.2146 5.43479H19.6167L19.6114 22.9558C19.5762 23.2937 19.3581 23.5843 19.1086 23.7905ZM9.41647 3.44001C8.97766 3.52272 8.89504 4.07719 9.30132 4.29484C9.40209 4.34925 9.62121 4.32204 9.73851 4.32204H15.1076C15.2345 4.32204 15.9906 4.30246 16.0258 4.32204C16.496 4.18166 16.5099 3.46286 16.0167 3.44001H9.41647ZM5.25395 5.34447C4.77835 5.48975 4.83914 6.19984 5.37498 6.20691H10.2712C10.4924 6.20691 10.7276 6.22269 10.9472 6.19821C11.3983 6.03497 11.3738 5.37929 10.8481 5.35045L5.25395 5.34447ZM14.5414 8.33719H6.21261C5.90869 8.33719 5.5728 8.30835 5.27155 8.34916C4.82741 8.40956 4.86473 9.13271 5.26728 9.20072C5.42457 9.22793 5.61012 9.20834 5.77114 9.20834H6.81509H15.0319C15.346 9.20834 15.6808 9.23174 15.9917 9.2029C16.3526 9.17025 16.4987 8.66585 16.231 8.42697L16.1777 8.38344C16.0412 8.27842 15.7144 8.33773 15.5512 8.33719H14.5414ZM5.34885 11.9916C4.93137 12.0422 4.82046 12.4742 5.10678 12.7871C5.20968 12.8997 5.34298 12.8682 5.48321 12.8693H16.0087C16.4886 12.7784 16.5067 12.0231 16.0274 11.9954C15.6515 11.9742 15.2639 11.9954 14.8864 11.9954L5.34885 11.9916ZM5.30513 16.1743C4.80768 16.2788 4.83433 17.0346 5.30193 17.058H16.0151C16.5419 16.9421 16.4699 16.1874 15.9436 16.1732L5.30513 16.1743Z" fill="black"/>
</g>
<defs>
<clipPath id="clip0_301_789">
<rect width="24" height="24" fill="white"/>
</clipPath>
</defs>
</svg>
