<?xml version="1.0" standalone="no"?>
<!DOCTYPE svg PUBLIC "-//W3C//DTD SVG 20010904//EN"
 "http://www.w3.org/TR/2001/REC-SVG-20010904/DTD/svg10.dtd">
<svg version="1.0" xmlns="http://www.w3.org/2000/svg"
 width="554.000000pt" height="554.000000pt" viewBox="0 0 554.000000 554.000000"
 preserveAspectRatio="xMidYMid meet">
<metadata>
Created by potrace 1.16, written by Peter Selinger 2001-2019
</metadata>
<g transform="translate(0.000000,554.000000) scale(0.100000,-0.100000)"
fill="#000000" stroke="none">
<path d="M0 2770 l0 -2770 2770 0 2770 0 0 2770 0 2770 -2770 0 -2770 0 0
-2770z m2763 1196 c68 -29 99 -75 99 -147 0 -63 -30 -111 -86 -138 -49 -24
-84 -26 -129 -7 -94 39 -127 168 -62 244 48 57 115 75 178 48z m122 -421 c22
-44 45 -88 51 -98 7 -12 39 -25 90 -38 111 -28 148 -73 108 -133 -23 -35 -55
-39 -151 -16 -94 22 -145 48 -170 87 l-17 25 -12 -34 c-6 -19 -15 -52 -18 -74
-7 -40 -6 -42 50 -89 72 -62 98 -116 88 -183 -13 -94 -56 -267 -67 -274 -45
-30 -101 -19 -123 24 -15 29 -15 39 7 156 l23 125 -55 49 c-47 42 -59 48 -93
46 l-38 -3 -34 -119 c-19 -66 -45 -138 -59 -160 -13 -23 -42 -78 -64 -122 -52
-106 -108 -154 -146 -126 -19 13 -45 61 -45 83 0 12 29 76 64 143 53 100 73
152 114 301 52 187 66 245 60 245 -10 0 -108 -139 -121 -172 -15 -35 -14 -37
9 -59 13 -12 24 -32 24 -43 0 -30 -158 -186 -188 -186 -28 0 -262 231 -262
259 0 18 170 191 188 191 6 0 23 -11 39 -24 27 -24 28 -24 63 -6 19 10 53 41
74 70 43 56 105 112 211 190 l70 50 145 -2 145 -3 40 -80z m765 -1150 l0 -836
-147 3 -148 3 -3 820 c-1 451 0 826 3 833 3 9 43 12 150 12 l145 0 0 -835z
m-362 -137 l-3 -693 -147 -3 -148 -3 0 696 0 695 150 0 150 0 -2 -692z m-368
-143 l0 -555 -150 0 -150 0 0 549 0 550 23 4 c12 2 79 5 150 6 l127 1 0 -555z
m-365 -135 l0 -415 -150 0 -150 0 -3 405 c-1 223 0 411 3 418 3 10 40 12 152
10 l148 -3 0 -415z m-367 -137 l-3 -278 -147 -3 -148 -3 0 281 0 280 150 0
150 0 -2 -277z"/>
<path d="M3400 2395 l0 -785 105 0 104 0 3 533 c2 292 2 646 0 785 l-3 252
-104 0 -105 0 0 -785z"/>
<path d="M3035 2898 c-9 -23 -10 -169 -7 -735 l2 -553 104 0 104 0 3 558 c2
306 2 598 -1 647 l-5 90 -98 3 c-74 3 -98 0 -102 -10z"/>
<path d="M2668 2623 c-2 -5 -2 -234 0 -510 l4 -503 104 0 104 0 0 510 0 510
-104 0 c-58 0 -106 -3 -108 -7z"/>
<path d="M2300 1980 l0 -370 105 0 105 0 0 370 0 370 -105 0 -105 0 0 -370z"/>
<path d="M1930 1840 l0 -230 105 0 105 0 0 230 0 230 -105 0 -105 0 0 -230z"/>
</g>
</svg>
